<svg width="41" height="41" viewBox="0 0 41 41" fill="none" xmlns="http://www.w3.org/2000/svg">
<g clip-path="url(#clip0_616_2)">
<path d="M20.5 0.595215C15.0725 0.595215 14.39 0.620215 12.2575 0.715215C10.125 0.815215 8.6725 1.15021 7.4 1.64521C6.06523 2.14726 4.85623 2.93478 3.8575 3.95271C2.84019 4.95196 2.05277 6.16081 1.55 7.49521C1.055 8.76521 0.7175 10.2202 0.62 12.3452C0.525 14.4827 0.5 15.1627 0.5 20.5977C0.5 26.0277 0.525 26.7077 0.62 28.8402C0.72 30.9702 1.055 32.4227 1.55 33.6952C2.0625 35.0102 2.745 36.1252 3.8575 37.2377C4.9675 38.3502 6.0825 39.0352 7.3975 39.5452C8.6725 40.0402 10.1225 40.3777 12.2525 40.4752C14.3875 40.5702 15.0675 40.5952 20.5 40.5952C25.9325 40.5952 26.61 40.5702 28.745 40.4752C30.8725 40.3752 32.33 40.0402 33.6025 39.5452C34.9364 39.0429 36.1445 38.2554 37.1425 37.2377C38.255 36.1252 38.9375 35.0102 39.45 33.6952C39.9425 32.4227 40.28 30.9702 40.38 28.8402C40.475 26.7077 40.5 26.0277 40.5 20.5952C40.5 15.1627 40.475 14.4827 40.38 12.3477C40.28 10.2202 39.9425 8.76521 39.45 7.49521C38.9473 6.16078 38.1599 4.9519 37.1425 3.95271C36.1441 2.9344 34.935 2.14683 33.6 1.64521C32.325 1.15021 30.87 0.812715 28.7425 0.715215C26.6075 0.620215 25.93 0.595215 20.495 0.595215H20.5025H20.5ZM18.7075 4.20021H20.5025C25.8425 4.20021 26.475 4.21771 28.5825 4.31521C30.5325 4.40271 31.5925 4.73021 32.2975 5.00271C33.23 5.36521 33.8975 5.80021 34.5975 6.50021C35.2975 7.20021 35.73 7.86521 36.0925 8.80022C36.3675 9.50271 36.6925 10.5627 36.78 12.5127C36.8775 14.6202 36.8975 15.2527 36.8975 20.5902C36.8975 25.9277 36.8775 26.5627 36.78 28.6702C36.6925 30.6202 36.365 31.6777 36.0925 32.3827C35.7719 33.2511 35.2601 34.0363 34.595 34.6802C33.895 35.3802 33.23 35.8127 32.295 36.1752C31.595 36.4502 30.535 36.7752 28.5825 36.8652C26.475 36.9602 25.8425 36.9827 20.5025 36.9827C15.1625 36.9827 14.5275 36.9602 12.42 36.8652C10.47 36.7752 9.4125 36.4502 8.7075 36.1752C7.83875 35.855 7.05281 35.3442 6.4075 34.6802C5.74188 34.0353 5.22931 33.2494 4.9075 32.3802C4.635 31.6777 4.3075 30.6177 4.22 28.6677C4.125 26.5602 4.105 25.9277 4.105 20.5852C4.105 15.2452 4.125 14.6152 4.22 12.5077C4.31 10.5577 4.635 9.49771 4.91 8.79271C5.2725 7.86021 5.7075 7.19271 6.4075 6.49271C7.1075 5.79271 7.7725 5.36021 8.7075 4.99771C9.4125 4.72271 10.47 4.39771 12.42 4.30771C14.265 4.22271 14.98 4.19771 18.7075 4.19521V4.20021ZM31.1775 7.52021C30.8623 7.52021 30.5502 7.58229 30.2591 7.7029C29.9679 7.82352 29.7033 8.0003 29.4804 8.22316C29.2576 8.44602 29.0808 8.71059 28.9602 9.00177C28.8396 9.29296 28.7775 9.60504 28.7775 9.92021C28.7775 10.2354 28.8396 10.5475 28.9602 10.8387C29.0808 11.1298 29.2576 11.3944 29.4804 11.6173C29.7033 11.8401 29.9679 12.0169 30.2591 12.1375C30.5502 12.2581 30.8623 12.3202 31.1775 12.3202C31.814 12.3202 32.4245 12.0674 32.8746 11.6173C33.3246 11.1672 33.5775 10.5567 33.5775 9.92021C33.5775 9.2837 33.3246 8.67325 32.8746 8.22316C32.4245 7.77307 31.814 7.52021 31.1775 7.52021ZM20.5025 10.3252C19.1402 10.304 17.7872 10.5539 16.5224 11.0606C15.2577 11.5672 14.1063 12.3204 13.1354 13.2763C12.1645 14.2322 11.3934 15.3716 10.8671 16.6284C10.3408 17.8851 10.0698 19.234 10.0698 20.5965C10.0698 21.959 10.3408 23.3078 10.8671 24.5646C11.3934 25.8213 12.1645 26.9608 13.1354 27.9167C14.1063 28.8725 15.2577 29.6257 16.5224 30.1324C17.7872 30.639 19.1402 30.889 20.5025 30.8677C23.1989 30.8256 25.7705 29.725 27.6624 27.8033C29.5544 25.8817 30.6148 23.2931 30.6148 20.5965C30.6148 17.8998 29.5544 15.3112 27.6624 13.3896C25.7705 11.4679 23.1989 10.3673 20.5025 10.3252ZM20.5025 13.9277C22.2708 13.9277 23.9667 14.6302 25.2171 15.8806C26.4675 17.131 27.17 18.8269 27.17 20.5952C27.17 22.3635 26.4675 24.0595 25.2171 25.3098C23.9667 26.5602 22.2708 27.2627 20.5025 27.2627C18.7342 27.2627 17.0383 26.5602 15.7879 25.3098C14.5375 24.0595 13.835 22.3635 13.835 20.5952C13.835 18.8269 14.5375 17.131 15.7879 15.8806C17.0383 14.6302 18.7342 13.9277 20.5025 13.9277Z" fill="white"/>
</g>
<defs>
<clipPath id="clip0_616_2">
<rect width="40" height="40" fill="white" transform="translate(0.5 0.595215)"/>
</clipPath>
</defs>
</svg>
