<svg width="41" height="41" viewBox="0 0 41 41" fill="none" xmlns="http://www.w3.org/2000/svg">
<path d="M37.5202 10.0218C36.2483 10.5844 34.8996 10.9541 33.5185 11.1184C34.9736 10.247 36.0624 8.87632 36.5819 7.26176C35.2152 8.07509 33.7169 8.64509 32.1569 8.95343C31.1079 7.83106 29.7175 7.0867 28.2018 6.83607C26.6861 6.58544 25.1301 6.84258 23.7757 7.56751C22.4212 8.29245 21.3442 9.44457 20.7121 10.8447C20.0799 12.2449 19.9281 13.8147 20.2802 15.3101C17.5084 15.1714 14.7968 14.4513 12.3214 13.1965C9.84606 11.9418 7.66227 10.1804 5.91188 8.02676C5.29236 9.09084 4.9668 10.3005 4.96854 11.5318C4.96854 13.9484 6.20021 16.0834 8.06854 17.3334C6.9619 17.2985 5.87962 16.9997 4.91188 16.4618V16.5468C4.91182 18.1565 5.4686 19.7168 6.48776 20.9629C7.50692 22.209 8.92573 23.0642 10.5035 23.3834C9.47628 23.6621 8.39903 23.7031 7.35354 23.5034C7.79841 24.8891 8.66556 26.1009 9.83354 26.9691C11.0015 27.8373 12.4118 28.3184 13.8669 28.3451C12.4208 29.4808 10.765 30.3204 8.99422 30.8157C7.22343 31.311 5.37235 31.4524 3.54688 31.2318C6.73308 33.2807 10.442 34.3685 14.2302 34.3651C27.0535 34.3651 34.0635 23.7434 34.0635 14.5318C34.0635 14.2318 34.0569 13.9284 34.0435 13.6301C35.4076 12.644 36.5849 11.421 37.5202 10.0218Z" fill="white"/>
</svg>
