<svg width="41" height="41" viewBox="0 0 41 41" fill="none" xmlns="http://www.w3.org/2000/svg">
<path d="M20.9068 7.26172C21.7968 7.26672 24.0235 7.28839 26.3902 7.38339L27.2302 7.42005C29.6118 7.53172 31.9918 7.72505 33.1735 8.05339C34.7485 8.49672 35.9852 9.78672 36.4035 11.4234C37.0702 14.0234 37.1535 19.0934 37.1635 20.3217L37.1652 20.5751V20.8651C37.1535 22.0934 37.0702 27.1651 36.4035 29.7634C35.9802 31.4051 34.7418 32.6967 33.1735 33.1334C31.9918 33.4617 29.6118 33.6551 27.2302 33.7667L26.3902 33.8051C24.0235 33.8984 21.7968 33.9217 20.9068 33.9251L20.5152 33.9267H20.0902C18.2068 33.9151 10.3302 33.8301 7.8235 33.1334C6.25016 32.6901 5.01183 31.4001 4.5935 29.7634C3.92683 27.1634 3.8435 22.0934 3.8335 20.8651V20.3217C3.8435 19.0934 3.92683 14.0217 4.5935 11.4234C5.01683 9.78172 6.25516 8.49005 7.82516 8.05505C10.3302 7.35672 18.2085 7.27172 20.0918 7.26172H20.9068ZM17.1652 14.7617V26.4284L27.1652 20.5951L17.1652 14.7617Z" fill="white"/>
</svg>
